HIERARCHY
ROOT Hips
{
    OFFSET   0.000000   0.000000   0.000000
    CHANNELS 6 Xposition Yposition Zposition Zrotation Xrotation Yrotation
    JOINT Chest
    {
        OFFSET   0.000000   8.007230   0.000000
        CHANNELS 3 Zrotation Xrotation Yrotation
        JOINT Chest2
        {
            OFFSET   0.000000  22.077100   0.000000
            CHANNELS 3 Zrotation Xrotation Yrotation
            JOINT Neck
            {
                OFFSET   0.000000  23.254700   0.000000
                CHANNELS 3 Zrotation Xrotation Yrotation
                JOINT Head
                {
                    OFFSET   0.000010  14.370000   1.956610
                    CHANNELS 3 Zrotation Xrotation Yrotation
                    End Site
                    {
                        OFFSET   0.000000  19.566000   0.000000
                    }
                }
            }
            JOINT LeftCollar
            {
                OFFSET   3.911900  19.017000  -0.467063
                CHANNELS 3 Zrotation Xrotation Yrotation
                JOINT LeftShoulder
                {
                    OFFSET  10.383700   0.000000   0.000000
                    CHANNELS 3 Zrotation Xrotation Yrotation
                    JOINT LeftElbow
                    {
                        OFFSET  26.662100   0.001671   0.000522
                        CHANNELS 3 Zrotation Xrotation Yrotation
                        JOINT LeftWrist
                        {
                            OFFSET  28.869000   0.000037  -0.000114
                            CHANNELS 3 Zrotation Xrotation Yrotation
                            JOINT LeftFinger0
                            {
                                OFFSET   2.044650  -2.323450   3.252850
                                CHANNELS 3 Zrotation Xrotation Yrotation
                                JOINT LeftFinger01
                                {
                                    OFFSET   3.088140   0.000000   0.000000
                                    CHANNELS 3 Zrotation Xrotation Yrotation
                                    JOINT LeftFinger02
                                    {
                                        OFFSET   2.639460   0.000000   0.000000
                                        CHANNELS 3 Zrotation Xrotation Yrotation
                                        End Site
                                        {
                                            OFFSET   2.582190   0.000000   0.000000
                                        }
                                    }
                                }
                            }
                            JOINT LeftFinger1
                            {
                                OFFSET   8.364480   0.000000   3.252850
                                CHANNELS 3 Zrotation Xrotation Yrotation
                                JOINT LeftFinger11
                                {
                                    OFFSET   4.646930   0.000000   0.000000
                                    CHANNELS 3 Zrotation Xrotation Yrotation
                                    JOINT LeftFinger12
                                    {
                                        OFFSET   2.323470   0.000000   0.000000
                                        CHANNELS 3 Zrotation Xrotation Yrotation
                                        End Site
                                        {
                                            OFFSET   2.273050   0.000000   0.000000
                                        }
                                    }
                                }
                            }
                            JOINT LeftFinger2
                            {
                                OFFSET   8.364490   0.000016   1.078090
                                CHANNELS 3 Zrotation Xrotation Yrotation
                                JOINT LeftFinger21
                                {
                                    OFFSET   5.111620   0.000000   0.000000
                                    CHANNELS 3 Zrotation Xrotation Yrotation
                                    JOINT LeftFinger22
                                    {
                                        OFFSET   2.788150   0.000013   0.000000
                                        CHANNELS 3 Zrotation Xrotation Yrotation
                                        End Site
                                        {
                                            OFFSET   2.727660   0.000000   0.000000
                                        }
                                    }
                                }
                            }
                            JOINT LeftFinger3
                            {
                                OFFSET   7.899780   0.000016  -1.078090
                                CHANNELS 3 Zrotation Xrotation Yrotation
                                JOINT LeftFinger31
                                {
                                    OFFSET   4.646930   0.000000   0.000000
                                    CHANNELS 3 Zrotation Xrotation Yrotation
                                    JOINT LeftFinger32
                                    {
                                        OFFSET   2.323470   0.000000   0.000000
                                        CHANNELS 3 Zrotation Xrotation Yrotation
                                        End Site
                                        {
                                            OFFSET   2.273050   0.000000   0.000000
                                        }
                                    }
                                }
                            }
                            JOINT LeftFinger4
                            {
                                OFFSET   7.435080   0.000000  -3.252850
                                CHANNELS 3 Zrotation Xrotation Yrotation
                                JOINT LeftFinger41
                                {
                                    OFFSET   3.717550   0.000000   0.000000
                                    CHANNELS 3 Zrotation Xrotation Yrotation
                                    JOINT LeftFinger42
                                    {
                                        OFFSET   1.858760   0.000000   0.000000
                                        CHANNELS 3 Zrotation Xrotation Yrotation
                                        End Site
                                        {
                                            OFFSET   1.818440   0.000000   0.000000
                                        }
                                    }
                                }
                            }
                        }
                    }
                }
            }
            JOINT RightCollar
            {
                OFFSET  -3.911900  19.017000  -0.467064
                CHANNELS 3 Zrotation Xrotation Yrotation
                JOINT RightShoulder
                {
                    OFFSET -10.383700   0.000000   0.000000
                    CHANNELS 3 Zrotation Xrotation Yrotation
                    JOINT RightElbow
                    {
                        OFFSET -26.662100   0.001633   0.000260
                        CHANNELS 3 Zrotation Xrotation Yrotation
                        JOINT RightWrist
                        {
                            OFFSET -28.869000  -0.000045  -0.000080
                            CHANNELS 3 Zrotation Xrotation Yrotation
                            JOINT RightFinger0
                            {
                                OFFSET  -2.044660  -2.323490   3.252850
                                CHANNELS 3 Zrotation Xrotation Yrotation
                                JOINT RightFinger01
                                {
                                    OFFSET  -3.088140   0.000000   0.000000
                                    CHANNELS 3 Zrotation Xrotation Yrotation
                                    JOINT RightFinger02
                                    {
                                        OFFSET  -2.639450   0.000000   0.000000
                                        CHANNELS 3 Zrotation Xrotation Yrotation
                                        End Site
                                        {
                                            OFFSET  -2.582190   0.000000   0.000000
                                        }
                                    }
                                }
                            }
                            JOINT RightFinger1
                            {
                                OFFSET  -8.364480   0.000000   3.252850
                                CHANNELS 3 Zrotation Xrotation Yrotation
                                JOINT RightFinger11
                                {
                                    OFFSET  -4.646920   0.000000   0.000000
                                    CHANNELS 3 Zrotation Xrotation Yrotation
                                    JOINT RightFinger12
                                    {
                                        OFFSET  -2.323470   0.000000   0.000000
                                        CHANNELS 3 Zrotation Xrotation Yrotation
                                        End Site
                                        {
                                            OFFSET  -2.273050   0.000000   0.000000
                                        }
                                    }
                                }
                            }
                            JOINT RightFinger2
                            {
                                OFFSET  -8.364480   0.000000   1.078090
                                CHANNELS 3 Zrotation Xrotation Yrotation
                                JOINT RightFinger21
                                {
                                    OFFSET  -5.111610   0.000000   0.000000
                                    CHANNELS 3 Zrotation Xrotation Yrotation
                                    JOINT RightFinger22
                                    {
                                        OFFSET  -2.788160   0.000000   0.000000
                                        CHANNELS 3 Zrotation Xrotation Yrotation
                                        End Site
                                        {
                                            OFFSET  -2.727660   0.000000   0.000000
                                        }
                                    }
                                }
                            }
                            JOINT RightFinger3
                            {
                                OFFSET  -7.899780   0.000000  -1.078090
                                CHANNELS 3 Zrotation Xrotation Yrotation
                                JOINT RightFinger31
                                {
                                    OFFSET  -4.646930   0.000000   0.000000
                                    CHANNELS 3 Zrotation Xrotation Yrotation
                                    JOINT RightFinger32
                                    {
                                        OFFSET  -2.323470   0.000000   0.000000
                                        CHANNELS 3 Zrotation Xrotation Yrotation
                                        End Site
                                        {
                                            OFFSET  -2.273050   0.000000   0.000000
                                        }
                                    }
                                }
                            }
                            JOINT RightFinger4
                            {
                                OFFSET  -7.435090   0.000000  -3.252850
                                CHANNELS 3 Zrotation Xrotation Yrotation
                                JOINT RightFinger41
                                {
                                    OFFSET  -3.717550   0.000000   0.000000
                                    CHANNELS 3 Zrotation Xrotation Yrotation
                                    JOINT RightFinger42
                                    {
                                        OFFSET  -1.858760   0.000000   0.000000
                                        CHANNELS 3 Zrotation Xrotation Yrotation
                                        End Site
                                        {
                                            OFFSET  -1.818440   0.000000   0.000000
                                        }
                                    }
                                }
                            }
                        }
                    }
                }
            }
        }
    }
    JOINT LeftHip
    {
        OFFSET   9.782990   0.000000   0.000000
        CHANNELS 3 Zrotation Xrotation Yrotation
        JOINT LeftKnee
        {
            OFFSET  -0.000063 -41.789100   0.001657
            CHANNELS 3 Zrotation Xrotation Yrotation
            JOINT LeftAnkle
            {
                OFFSET   0.000078 -41.133200  -0.000113
                CHANNELS 3 Zrotation Xrotation Yrotation
                JOINT LeftToe
                {
                    OFFSET   0.000000  -6.358970  14.674500
                    CHANNELS 3 Zrotation Xrotation Yrotation
                    End Site
                    {
                        OFFSET   0.000000   0.000000   3.913200
                    }
                }
            }
        }
    }
    JOINT RightHip
    {
        OFFSET  -9.782990   0.000000   0.000000
        CHANNELS 3 Zrotation Xrotation Yrotation
        JOINT RightKnee
        {
            OFFSET   0.000053 -41.789200   0.000277
            CHANNELS 3 Zrotation Xrotation Yrotation
            JOINT RightAnkle
            {
                OFFSET   0.000030 -41.133200  -0.000150
                CHANNELS 3 Zrotation Xrotation Yrotation
                JOINT RightToe
                {
                    OFFSET   0.000000  -6.358960  14.674500
                    CHANNELS 3 Zrotation Xrotation Yrotation
                    End Site
                    {
                        OFFSET   0.000000   0.000000   3.913200
                    }
                }
            }
        }
    }
}
MOTION
Frames: 4
Frame Time:   0.016667
  0.272207  89.595000  -1.198620  -3.380650  -7.177140  -2.981740   0.421114   5.182560   0.223615   0.826924  10.366600   0.411331   0.757377  -0.028589  -0.011422   1.248790  -0.058065   3.320180  -5.449470  -1.449340   1.670790 -72.306400  13.850100  -1.047350  -1.088880  -4.591460 -18.856100  12.180900  -6.492550  -0.861602  37.784800  30.899800 -56.703600 -33.451500   0.000000   0.000060 -11.725700  -0.004972  -0.004837 -31.455600   5.976830  -9.660000 -26.150000   0.001906  -0.008499 -18.296600  -0.006540  -0.007631 -29.385500  -2.836410   5.021810 -44.264700   0.002153  -0.007108 -29.480300   0.001269  -0.011589 -28.634400  -2.769590   5.058910 -40.232500   0.000000  -0.002540 -26.794800  -0.001793  -0.002730 -35.825200  -3.382260   4.672140 -53.944800   0.002416   0.000000 -35.927200   0.001299   0.001053  11.396600   0.926585   8.188530  67.108200   8.459220  -5.649350  -2.441360  -7.320750  15.116600 -13.018200  -6.932570   0.537402 -39.204700  36.878600  72.248700  32.617000   0.006842  -0.017867  11.308500  -0.000123  -0.017537  31.122900   8.514660  13.769700  26.318200  -0.004562  -0.004546  18.422800  -0.005235  -0.008548  31.976700   4.916230   7.814600  48.471000  -0.005573  -0.003114  32.281700  -0.004235   0.000875  28.680000   2.455110   4.483180  41.932500   0.013331   0.017545  27.927000   0.013366   0.005970  38.633900  -0.681752  -0.851714  57.953900   0.019668  -0.001956  38.597200   0.011012   0.004182   2.737330   9.486370   3.863360   0.860621   0.003670   2.802160  -1.248660  -3.166890   1.680840  -0.000000   0.000000   0.000000   3.152620   7.843730   1.189150  -1.070000   2.360680  -5.650950   0.428273  -3.443500   1.566260   0.000000   0.000000  -0.000000
  0.284570  89.595000  -1.219400  -3.382300  -7.215030  -2.980680   0.421098   5.203600   0.226917   0.826571  10.408700   0.417757   0.757096  -0.012746  -0.011398   1.247440  -0.026058   3.325630  -5.449090  -1.458280   1.675710 -72.289100  13.905200  -1.084360  -1.102670  -4.599050 -18.862900  12.187300  -6.481800  -0.860206  37.776700  30.907000 -56.747900 -33.465900   0.000000   0.000030 -11.732900  -0.004978  -0.004824 -31.459800   5.966380  -9.642800 -26.151000   0.001903  -0.008489 -18.300300  -0.006536  -0.007624 -29.394000  -2.838800   5.024220 -44.277700   0.002158  -0.007118 -29.488900   0.001274  -0.011601 -28.634000  -2.771180   5.061780 -40.236000   0.000028  -0.002542 -26.797100  -0.001796  -0.002755 -35.823300  -3.383840   4.675050 -53.941600   0.002422  -0.000000 -35.925000   0.001285   0.001088  11.415100   0.896406   8.224630  67.046700   8.479430  -5.610280  -2.437110  -7.356010  15.135200 -13.053400  -6.776130   0.570263 -40.037300  37.669000  72.893600  32.392200   0.006784  -0.026610  11.196100  -0.000109  -0.017675  30.833100   8.633640  14.103400  26.122200  -0.005643  -0.007768  18.285500  -0.006143  -0.008547  31.942800   4.920430   7.822900  48.381200  -0.019621  -0.010235  32.221900  -0.014742   0.000875  28.664400   2.689510   4.911090  42.223000   0.009558   0.013711  28.120500   0.009942   0.006028  38.869500  -0.747322  -0.924280  58.308100   0.017145  -0.001941  38.833100   0.009626   0.004159   2.731240   9.487340   3.862850   0.860737   0.057409   2.806310  -1.250980  -3.173260   1.674900  -0.000000   0.000000   0.000000   3.150430   7.863470   1.201820  -1.075790   2.371500  -5.676070   0.437413  -3.435480   1.575290  -0.000000   0.000000   0.000000
  0.304938  89.595000  -1.253260  -3.384940  -7.282540  -2.975450   0.421197   5.241050   0.230225   0.826359  10.483600   0.424229   0.756819   0.014390  -0.011336   1.245540   0.028867   3.339040  -5.448330  -1.475090   1.686030 -72.262500  14.001500  -1.145380  -1.120340  -4.615120 -18.880400  12.194500  -6.471070  -0.850545  37.753500  30.905200 -56.805600 -33.490900   0.000000   0.000000 -11.745400  -0.004983  -0.004812 -31.470200   5.948780  -9.610320 -26.157900   0.001899  -0.008468 -18.310500  -0.006525  -0.007608 -29.410400  -2.849640   5.039870 -44.303700   0.002172  -0.007145 -29.506200   0.001284  -0.011634 -28.632200  -2.780310   5.078390 -40.254500   0.000077  -0.002549 -26.809500  -0.001799  -0.002808 -35.819800  -3.394910   4.690430 -53.938300   0.002439   0.000000 -35.922900   0.001271   0.001123  11.436100   0.847696   8.274200  66.957000   8.500630  -5.501150  -2.432850  -7.391270  15.153800 -13.304500  -5.681070   0.799854 -41.605000  39.345600  74.619500  31.963400   0.006687  -0.035353  10.981700  -0.000094  -0.017812  30.323500   8.887930  14.771200  25.786500  -0.009389  -0.015863  18.050500  -0.009674  -0.008546  31.708700   4.924050   7.880710  48.009500  -0.047386  -0.027161  31.974400  -0.036391   0.000874  28.633200   3.106660   5.672860  42.662200   0.002572   0.006519  28.413000   0.003573   0.006123  39.237400  -0.851477  -1.039860  58.863300   0.010631  -0.001926  39.202900   0.005973   0.004137   2.721330   9.494060   3.862410   0.860845   0.111147   2.810450  -1.253630  -3.179650   1.662910  -0.000000   0.000000   0.000000   3.145890   7.903920   1.228260  -1.084220   2.382220  -5.726600   0.453134  -3.421840   1.590190   0.000000   0.000000   0.000000
  0.321112  89.595100  -1.279310  -3.386570  -7.344940  -2.962770   0.421582   5.275910   0.228542   0.826994  10.553300   0.420640   0.756894   0.036020  -0.011234   1.243890   0.072911   3.356180  -5.444290  -1.493120   1.702670 -72.246600  14.090400  -1.195990  -1.128800  -4.635430 -18.907600  12.187100  -6.479390  -0.820435  37.723700  30.870000 -56.821800 -33.514900   0.000000   0.000076 -11.757400  -0.004959  -0.004869 -31.502800   5.933520  -9.573390 -26.182900   0.001898  -0.008441 -18.329200  -0.006509  -0.007583 -29.434000  -2.876960   5.083650 -44.342500   0.002197  -0.007191 -29.532100   0.001298  -0.011684 -28.628700  -2.805130   5.123580 -40.304700   0.000120  -0.002562 -26.842900  -0.001765  -0.002870 -35.832400  -3.426500   4.731230 -53.961600   0.002466   0.000084 -35.938400   0.001294   0.001119  11.438000   0.811554   8.292040  66.912000   8.502630  -5.338120  -2.279160  -7.312940  15.142200 -14.177800  -2.754090   1.401840 -43.570900  41.364800  77.629900  31.522700   0.006584  -0.035252  10.761400  -0.000096  -0.017778  29.939900   9.250230  15.541200  25.572200  -0.018969  -0.032133  17.900600  -0.019251  -0.016197  30.850500   4.908930   8.110740  47.399800  -0.088205  -0.059265  31.568300  -0.070453  -0.004696  28.596500   3.604390   6.570810  42.966400  -0.006507  -0.003077  28.615700  -0.004781   0.006218  39.531900  -0.940263  -1.139340  59.312800  -0.001298  -0.001941  39.502300  -0.001710   0.004143   2.710600   9.555640   3.864540   0.860513   0.056464   2.810060  -1.253780  -3.128180   1.647880  -0.000000   0.000000   0.000000   3.141520   7.951060   1.261380  -1.084860   2.381890  -5.786590   0.466607  -3.409870   1.601730   0.000000   0.000000   0.000000
